<svg width="70" height="70" viewBox="0 0 70 70" fill="none" xmlns="http://www.w3.org/2000/svg">
<g clip-path="url(#clip0_40_2)">
<path d="M34.9999 0C15.7009 0 0 15.7009 0 34.9999C0 54.2988 15.7009 69.9997 34.9999 69.9997C44.0898 69.9997 52.7032 66.5314 59.2539 60.2335C59.8211 59.6884 59.8389 58.7864 59.2936 58.2195C58.7487 57.6525 57.847 57.6345 57.2796 58.1798C51.2623 63.9649 43.35 67.1508 35.0001 67.1508C17.2719 67.151 2.84897 52.7281 2.84897 34.9999C2.84897 17.2717 17.2719 2.84897 34.9999 2.84897C52.7279 2.84897 67.1508 17.2719 67.1508 34.9999C67.1508 38.9984 66.4262 42.8994 64.9972 46.594C64.7135 47.3279 65.0782 48.1526 65.812 48.4366C66.5461 48.7198 67.3706 48.3556 67.6546 47.6218C69.2108 43.5978 70 39.3512 70 34.9996C70 15.7009 54.2991 0 34.9999 0Z" fill="#F36C42"/>
<path d="M39.7952 38.0182C39.2325 37.4676 38.3308 37.4776 37.7807 38.0395C37.2304 38.6017 37.2401 39.5037 37.8021 40.054L49.0166 51.0311C49.2939 51.3025 49.6536 51.4376 50.013 51.4376C50.3827 51.4376 50.7521 51.2944 51.0311 51.0095C51.5814 50.4473 51.5717 49.5454 51.0097 48.995L39.7952 38.0182Z" fill="#F36C42"/>
<path d="M29.7191 31.7335C29.9971 32.0115 30.3618 32.1506 30.7264 32.1506C31.0911 32.1506 31.4555 32.0115 31.7338 31.7335C32.29 31.1772 32.29 30.2753 31.7338 29.719L20.9941 18.9793C20.4378 18.4231 19.5357 18.4231 18.9796 18.9793C18.4234 19.5356 18.4234 20.4375 18.9796 20.9938L29.7191 31.7335Z" fill="#F36C42"/>
<path d="M51.0204 18.9793C50.4641 18.4231 49.5619 18.4231 49.0059 18.9793L18.9794 49.0059C18.4231 49.5621 18.4231 50.4641 18.9794 51.0203C19.2574 51.2983 19.6221 51.4375 19.9867 51.4375C20.3514 51.4375 20.7158 51.2983 20.9941 51.0203L51.0204 20.994C51.5766 20.4375 51.5766 19.5358 51.0204 18.9793Z" fill="#F36C42"/>
</g>
<defs>
<clipPath id="clip0_40_2">
<rect width="70" height="70" fill="white"/>
</clipPath>
</defs>
</svg>
