<svg width="21" height="21" viewBox="0 0 21 21" fill="none" xmlns="http://www.w3.org/2000/svg">
<path d="M10.5 1.96875C5.78854 1.96875 1.96875 5.78854 1.96875 10.5C1.96875 15.2115 5.78854 19.0312 10.5 19.0312C15.2115 19.0312 19.0312 15.2115 19.0312 10.5C19.0312 5.78854 15.2115 1.96875 10.5 1.96875ZM10.5 15.0938C9.3791 15.0933 8.29692 14.6837 7.45661 13.9418C6.6163 13.2 6.07567 12.177 5.93619 11.0648L5.57279 11.4282L4.64461 10.5L6.53133 8.61328L8.48162 10.4787L7.57436 11.427L7.27904 11.1448C7.40073 11.743 7.6864 12.2957 8.10412 12.7409C8.52184 13.1862 9.05515 13.5065 9.64445 13.6661C10.2338 13.8257 10.8558 13.8182 11.4411 13.6446C12.0264 13.471 12.5519 13.138 12.9589 12.6829L13.9338 13.561C13.5006 14.0426 12.9711 14.4279 12.3796 14.6919C11.7881 14.9559 11.1478 15.0928 10.5 15.0938ZM14.4699 12.3867L12.5196 10.5205L13.4269 9.57223L13.7082 9.84088C13.5847 9.24501 13.2984 8.69508 12.881 8.25225C12.4636 7.80941 11.9316 7.49104 11.3441 7.33253C10.7565 7.17403 10.1366 7.1816 9.55308 7.35441C8.9696 7.52723 8.4455 7.85851 8.03906 8.31141L7.06207 7.4349C7.65199 6.7777 8.41858 6.30415 9.27032 6.0708C10.1221 5.83744 11.023 5.85413 11.8655 6.11888C12.708 6.38363 13.4565 6.88525 14.0217 7.56385C14.5868 8.24246 14.9448 9.06938 15.0527 9.94588L15.4264 9.57182L16.3554 10.5L14.4699 12.3867Z" fill="#F36C42"/>
</svg>
