<svg width="70" height="70" viewBox="0 0 70 70" fill="none" xmlns="http://www.w3.org/2000/svg">
<path d="M34.9999 0C15.7009 0 0 15.7009 0 34.9999C0 54.2988 15.7009 69.9997 34.9999 69.9997C44.0898 69.9997 52.7032 66.5314 59.2539 60.2335C59.8211 59.6884 59.8389 58.7864 59.2936 58.2195C58.7487 57.6525 57.847 57.6345 57.2796 58.1798C51.2623 63.9649 43.35 67.1508 35.0001 67.1508C17.2719 67.151 2.84897 52.7281 2.84897 34.9999C2.84897 17.2717 17.2719 2.84897 34.9999 2.84897C52.7279 2.84897 67.1508 17.2719 67.1508 34.9999C67.1508 38.9984 66.4262 42.8994 64.9972 46.594C64.7135 47.3279 65.0782 48.1526 65.812 48.4366C66.5461 48.7198 67.3706 48.3556 67.6546 47.6218C69.2108 43.5978 70 39.3512 70 34.9996C70 15.7009 54.2991 0 34.9999 0Z" fill="#F36C42"/>
<g clip-path="url(#clip0_42_21)">
<path d="M49.9278 27.5006C45.7319 18.7728 34.7597 15.5991 26.2107 20.0595C25.5388 20.4312 25.2457 21.246 25.6174 21.9894C25.9891 22.6613 26.804 22.9544 27.5473 22.5827C34.6882 18.8657 43.802 21.5177 47.3259 28.7515C52.0007 38.3513 45.9678 45.6709 41.0786 48.38C34.4237 52.0755 25.9819 49.6238 21.9504 43.3263L26.904 44.3628C27.6474 44.5129 28.4623 44.0626 28.6124 43.2477C28.7625 42.5043 28.3122 41.6894 27.4973 41.5393L18.7195 39.7523C17.247 39.6094 16.9325 40.9389 17.0112 41.3892L18.1262 50.2385C18.1977 50.9819 18.7982 51.5037 19.5416 51.5037C20.4565 51.5037 21.0283 50.6102 20.9569 49.7953L20.528 46.1856C24.631 51.2464 32.7011 55.5638 42.501 51.0605C46.654 48.9161 56.1895 40.5029 49.9278 27.5006Z" fill="#F36C42"/>
</g>
<defs>
<clipPath id="clip0_42_21">
<rect width="35" height="35" fill="white" transform="translate(17 18)"/>
</clipPath>
</defs>
</svg>
